<svg width="23" height="23" viewBox="0 0 23 23" fill="none" xmlns="http://www.w3.org/2000/svg">
<path d="M23 11.5C23 5.1497 17.8503 0 11.5 0C5.1497 0 0 5.1497 0 11.5C0 17.8503 5.1497 23 11.5 23C11.5676 23 11.6348 22.9986 11.7021 22.9974V14.0451H9.23145V11.1657H11.7021V9.04684C11.7021 6.58948 13.2023 5.252 15.3943 5.252C16.444 5.252 17.3463 5.33026 17.6094 5.36518V7.93345H16.0978C14.9053 7.93345 14.6744 8.50024 14.6744 9.33182V11.1657H17.5258L17.1542 14.0451H14.6744V22.5557C19.4812 21.1777 23 16.7492 23 11.5Z" fill="#FF6600"/>
</svg>
