<svg width="18" height="23" viewBox="0 0 18 23" fill="none" xmlns="http://www.w3.org/2000/svg">
<path d="M9 0C4.02955 0 0 3.77531 0 8.43216C0 13.089 8.01818 22.3069 8.36182 22.7132C8.51727 22.8946 8.75182 23 9 23C9.24818 23 9.48273 22.8946 9.63818 22.7132C9.98182 22.3069 18 12.8859 18 8.43216C18 3.97845 13.9705 0 9 0ZM9 10.7318C7.67659 10.7318 6.48273 9.98445 5.97614 8.83908C5.46955 7.69371 5.74977 6.37459 6.68591 5.49751C7.62205 4.62044 9.03 4.35789 10.2525 4.83252C11.4757 5.30715 12.2727 6.42505 12.2727 7.6656C12.2727 9.35906 10.8075 10.7318 9 10.7318Z" fill="#FF6600"/>
</svg>
