<svg width="154" height="69" viewBox="0 0 154 69" fill="none" xmlns="http://www.w3.org/2000/svg">
<path fill-rule="evenodd" clip-rule="evenodd" d="M48.7874 7.88819L48.4994 8.57898L42.0592 24.174C41.8555 24.6764 40.8793 24.7601 40.3456 24.5438L37.3396 23.3227C36.8129 23.1064 36.1738 22.3668 36.3845 21.8644L43.1197 5.5786C43.3304 5.07621 44.2996 4.99248 44.8334 5.20181L44.8895 5.07621L45.8025 5.41113C45.8025 5.41113 46.2029 4.6436 46.7366 4.75524C47.0808 4.82501 51.098 6.52058 51.393 6.64618C51.5334 6.68804 52.2779 6.93226 52.2568 7.88819C52.2568 8.31383 52.0742 10.4001 51.8986 12.4306C51.709 14.5588 51.5264 16.6172 51.5194 16.6381C51.5124 16.8405 51.5194 17.0428 51.5545 17.2312C51.5896 17.4266 51.6388 17.615 51.716 17.7964C52.0883 18.7384 52.8257 19.4711 53.7036 19.8269L58.0439 21.5923L57.7349 22.3319L53.3946 20.5666C52.3832 20.1549 51.4211 19.3106 50.9856 18.2221C50.9014 18.0058 50.8382 17.7825 50.796 17.5522C50.7539 17.322 50.7398 17.0777 50.7539 16.8335C50.7539 16.8335 50.9786 14.3495 51.1823 12.0329C51.3438 10.2048 51.4843 8.47432 51.4913 8.1045C51.4983 7.46954 51.1401 7.39278 51.1401 7.39278H51.1191L51.098 7.37883C51.084 7.37883 47.1791 5.71815 46.8701 5.65535C46.7717 5.63442 46.6875 5.73211 46.6453 5.78095L47.8884 6.29032L47.8322 6.41591C48.359 6.63222 48.9911 7.37185 48.7874 7.87424V7.88819Z" fill="white"/>
<path fill-rule="evenodd" clip-rule="evenodd" d="M57.9243 21.8715L58.135 21.3621C58.135 21.3621 58.1772 21.1667 58.4019 21.1946C58.6267 21.2225 59.2166 21.397 59.4975 21.4737C59.7714 21.5505 60.2069 21.9412 60.5861 22.0668C60.9654 22.1924 62.2436 22.2901 62.4894 22.3878C62.7352 22.4855 62.7422 22.8623 63.5218 23.1693C64.3014 23.4693 65.7552 24.0415 66.6682 24.4462C67.5812 24.8509 70.2851 25.9255 70.6995 26.058C71.1138 26.1906 71.3596 26.2953 71.5703 26.3162C71.781 26.3371 71.8864 26.5953 71.8653 26.8744C71.8091 27.4884 71.5773 28.0467 71.184 28.5211C71.0014 28.7374 70.7416 28.8491 70.5801 28.7165C70.4185 28.5839 70.1727 28.4863 69.7794 28.2909C69.3931 28.1025 66.7103 26.9791 65.7692 26.6302C64.8281 26.2813 63.3954 25.6743 62.6298 25.3463C61.8643 25.0184 61.5904 25.2835 61.3446 25.1789C61.0988 25.0812 60.1226 24.2578 59.7644 24.0764C59.4062 23.895 58.8233 23.874 58.5705 23.7345C58.3176 23.6019 57.7698 23.3088 57.5942 23.1763C57.4187 23.0367 57.524 22.8693 57.524 22.8693L57.7347 22.3599L57.9384 21.8715H57.9243ZM70.0674 27.1047C69.9971 27.2652 70.1025 27.4605 70.2991 27.5443C70.4958 27.621 70.7065 27.5582 70.7767 27.3977C70.8399 27.2373 70.7416 27.0419 70.5449 26.9581C70.3483 26.8814 70.1376 26.9442 70.0674 27.1047Z" fill="#FF6600"/>
<path fill-rule="evenodd" clip-rule="evenodd" d="M35.3029 22.5134C23.7147 18.6687 8.95906 20.455 0.116912 30.2516C-1.91278 7.96502 22.893 -6.27633 42.8107 4.29478L35.3029 22.5134Z" fill="#FF6600"/>
<path fill-rule="evenodd" clip-rule="evenodd" d="M140.13 34.8429C139.758 34.201 139.274 33.6498 138.677 33.1753C137.981 32.631 137.314 32.3589 136.668 32.3589C136.071 32.3589 135.404 32.645 134.659 33.2102C134.041 33.7056 133.557 34.2428 133.206 34.8359L119.391 57.6598H125.087L136.556 38.9458L140.987 46.2304H134.245L131.562 50.5984H143.628L147.912 57.6668L153.608 57.7017L140.13 34.8429Z" fill="white"/>
<path fill-rule="evenodd" clip-rule="evenodd" d="M28.5254 41.5414C28.5254 38.7573 27.507 36.5244 25.4703 34.8428C23.5811 33.238 21.2143 32.4355 18.3558 32.4355H0.116699V57.7016H4.54831V36.8384H19.0652C20.533 36.8384 21.755 37.2571 22.7523 38.0944C23.7426 38.9317 24.2412 40.0691 24.2412 41.4995C24.2412 42.9299 23.7426 44.0742 22.7523 44.9395C21.7621 45.8047 20.533 46.2373 19.0652 46.2373H7.1539V50.6053H18.3629C21.2143 50.6053 23.5881 49.8168 25.4773 48.2399C27.514 46.5373 28.5324 44.3045 28.5324 41.5414H28.5254Z" fill="white"/>
<path fill-rule="evenodd" clip-rule="evenodd" d="M42.8173 33.1821C42.122 32.6378 41.4548 32.3657 40.8087 32.3657C40.2117 32.3657 39.5445 32.6518 38.8001 33.217C38.182 33.7124 37.6974 34.2497 37.3463 34.8428L23.5317 57.6666H29.2275L40.6963 38.9526L45.1279 46.2373H38.3857L35.7029 50.6053H47.7686L52.0528 57.6736L57.7485 57.7085L44.2711 34.8498C43.8989 34.2078 43.4143 33.6566 42.8173 33.1821Z" fill="white"/>
<path fill-rule="evenodd" clip-rule="evenodd" d="M80.834 49.9703L64.5262 33.7334C63.6553 32.8682 62.8125 32.4355 61.9979 32.4355C61.4009 32.4355 60.9444 32.6519 60.6213 33.0845C60.2983 33.5171 60.1367 34.0264 60.1367 34.6195V57.7016H64.5332V40.1668L80.841 56.4456C81.8593 57.4573 82.7794 57.9597 83.5941 57.9597C84.7107 57.9597 85.2726 57.1433 85.2726 55.5176V32.4425H80.841V49.9773L80.834 49.9703Z" fill="white"/>
<path fill-rule="evenodd" clip-rule="evenodd" d="M85.167 11.6074C87.2389 9.29784 88.6294 8.06978 93.4263 7.05802C97.7244 6.15093 102.711 6.98127 103.701 7.16967C103.399 7.56739 103.28 7.81858 103.28 7.81858C103.28 7.81858 106.215 9.87001 107.311 11.4958C108.4 13.1216 110.176 15.7522 110.176 15.7522C110.176 15.7522 115.001 12.689 113.695 8.86523C112.389 5.04149 108.758 3.56223 106.363 4.93682C104.979 5.72529 104.172 6.56261 103.729 7.13478C103.343 6.96731 102.226 6.54866 100.379 6.3463C98.0545 6.09511 96.4954 6.06022 96.4954 6.06022C96.4954 6.06022 94.0302 0.506025 89.0227 2.23648C84.0152 3.96693 85.8272 10.0933 85.8272 10.0933C83.9099 11.8935 82.9547 14.1892 81.9785 16.5825C81.9785 16.5825 83.1022 13.917 85.174 11.6074H85.167Z" fill="white"/>
<path fill-rule="evenodd" clip-rule="evenodd" d="M99.4523 12.9819C99.4523 12.9819 97.1979 12.1865 95.6036 15.2915C94.0023 18.3966 96.1865 21.5714 100.4 22.0738C104.614 22.5762 106.286 20.1968 104.614 17.5244C102.943 14.8519 99.4593 12.9749 99.4593 12.9749L99.4523 12.9819ZM97.1979 19.9386C96.5517 19.9386 96.032 19.4293 96.032 18.8082C96.032 18.1872 96.5517 17.6779 97.1979 17.6779C97.844 17.6779 98.3637 18.1872 98.3637 18.8082C98.3637 19.4293 97.844 19.9386 97.1979 19.9386Z" fill="white"/>
<path fill-rule="evenodd" clip-rule="evenodd" d="M85.8695 20.6991C88.0467 20.2665 90.5188 17.8871 90.3713 15.5775C90.2238 13.2679 88.9175 12.6888 88.9175 12.6888C88.9175 12.6888 87.534 12.0399 86.3049 13.0516C85.0688 14.0634 83.1094 15.2915 81.8733 17.8174C80.6372 20.3433 83.6923 21.1387 85.8695 20.7061V20.6991ZM86.2558 17.4475C86.937 17.4475 87.4918 17.9988 87.4918 18.6756C87.4918 19.3524 86.937 19.9037 86.2558 19.9037C85.5745 19.9037 85.0197 19.3524 85.0197 18.6756C85.0197 17.9988 85.5745 17.4475 86.2558 17.4475Z" fill="white"/>
<path fill-rule="evenodd" clip-rule="evenodd" d="M93.9111 21.9202C93.8408 20.2944 91.2984 20.5875 89.8446 20.6573C88.3909 20.727 87.815 21.5225 88.3909 22.4994C88.9738 23.4692 89.662 23.7623 89.6972 24.3414C89.7323 24.9206 89.4443 26.9022 89.1142 27.2232C88.7842 27.5442 88.3909 28.0535 88.3909 28.0535L92.38 28.2001C92.38 28.2001 91.1439 27.3349 90.8911 26.7557C90.6383 26.1766 91.0386 24.7043 91.179 24.2647C91.3265 23.8321 93.9743 23.546 93.904 21.9202H93.9111Z" fill="white"/>
<path fill-rule="evenodd" clip-rule="evenodd" d="M111.272 23.2948C111.82 18.6059 110.745 15.3403 110.745 15.3403C110.745 15.3403 110.584 23.0925 108.463 27.0348C106.342 30.9772 96.4251 32.0587 93.5596 31.5843C91.8319 31.2982 89.4581 29.5607 87.8428 28.221C87.3722 27.7954 86.9298 27.4116 86.5224 27.0767C86.2134 26.7976 86.0378 26.6232 86.0378 26.6232L86.2977 26.8883C81.234 22.8343 80.5949 25.6951 70.3973 22.4715C64.3784 20.5666 61.0986 23.2879 61.7167 27.0209C62.3347 30.7609 67.1175 31.1656 71.5631 31.5075C74.2811 31.7168 77.3643 31.4168 80.4474 31.2005C86.979 30.7469 91.4035 34.0892 92.2252 39.8876V57.7015H106.559C110.282 57.7015 113.351 56.4805 115.753 54.0383C118.162 51.5961 119.363 48.512 119.363 44.7929C119.363 41.0738 118.197 38.213 115.886 35.9592C113.674 32.6449 110.514 29.7701 111.272 23.2879V23.2948ZM96.6217 36.8454H106.559C106.918 36.8454 107.262 36.8663 107.606 36.9012C111.855 42.1205 107.009 47.6677 99.5434 46.9071C98.3494 46.7885 97.3802 46.9211 96.6147 47.2211V36.8454H96.6217Z" fill="white"/>
<path fill-rule="evenodd" clip-rule="evenodd" d="M13.2852 67.1491H15.1182C15.6309 67.1491 16.0101 67.1422 16.263 67.1212C16.586 67.1003 16.8178 67.0654 16.9723 67.0166C17.2884 66.8979 17.5342 66.7095 17.7168 66.4514C17.8994 66.2002 17.9907 65.9001 17.9907 65.5582C17.9907 65.1605 17.8783 64.8256 17.6536 64.5604C17.4288 64.2883 17.1268 64.1139 16.7405 64.0441C17.0355 63.9325 17.2743 63.765 17.4429 63.5417C17.6114 63.3184 17.6957 63.0672 17.6957 62.7811C17.6957 62.509 17.6255 62.2648 17.485 62.0415C17.3445 61.8112 17.1549 61.6368 16.9161 61.5182C16.7405 61.4205 16.5299 61.3577 16.284 61.3158C16.0733 61.2879 15.7994 61.274 15.4694 61.274H13.2852V67.1422V67.1491ZM15.364 61.7624C15.968 61.7624 16.4034 61.8322 16.6563 61.9717C16.9442 62.1252 17.0847 62.4113 17.0847 62.816C17.0847 63.2207 16.9372 63.4998 16.6422 63.6603C16.3824 63.7999 15.9469 63.8697 15.3148 63.8697H13.8751V61.7694H15.371L15.364 61.7624ZM13.8681 66.6607V64.3441H15.7081C16.256 64.3441 16.6703 64.4418 16.9512 64.6372C17.2322 64.8395 17.3726 65.1396 17.3726 65.5373C17.3726 65.9629 17.2322 66.263 16.9512 66.4304C16.6984 66.5839 16.27 66.6607 15.666 66.6607H13.8681ZM22.4995 64.2185C22.4995 65.1605 22.7594 65.9141 23.2721 66.4793C23.7777 67.0375 24.4449 67.3166 25.2737 67.3166C26.1024 67.3166 26.8117 67.0375 27.3244 66.4793C27.8512 65.9211 28.111 65.1675 28.111 64.2185C28.111 63.2696 27.8512 62.509 27.3244 61.9508C26.8117 61.4065 26.1235 61.1274 25.2737 61.1274C24.4239 61.1274 23.7707 61.3996 23.2721 61.9508C22.7594 62.516 22.4995 63.2696 22.4995 64.2185ZM23.0825 64.2185C23.0825 63.4091 23.2931 62.7672 23.7005 62.2927C24.0938 61.8392 24.6205 61.6089 25.2667 61.6089C25.9479 61.6089 26.4887 61.8392 26.889 62.2927C27.3104 62.7602 27.5211 63.4021 27.5211 64.2185C27.5211 65.0349 27.3104 65.6699 26.889 66.1444C26.4887 66.6049 25.9479 66.8351 25.2667 66.8351C24.5854 66.8351 24.0868 66.6049 23.6935 66.1444C23.2861 65.6699 23.0825 65.021 23.0825 64.2185ZM34.5091 67.1491H35.092V64.5674L37.3043 61.2809H36.6231L34.7971 64.058L32.9851 61.2809H32.3039L34.5091 64.5674V67.1491ZM40.9985 67.1491H41.6166L42.347 65.3559H45.2475L45.9639 67.1491H46.5819L44.1379 61.2809H43.4356L40.9915 67.1491H40.9985ZM42.5577 64.8744L43.7867 61.8531L45.0439 64.8744H42.5577ZM51.154 67.1491H51.7299V62.0904L53.6753 67.1491H54.181L56.1404 62.0904V67.1491H56.7163V61.2809H55.8876L53.9422 66.3118L51.9827 61.2809H51.154V67.1491ZM61.0707 67.1491H61.6887L62.4191 65.3559H65.3197L66.0361 67.1491H66.6541L64.21 61.2809H63.5077L61.0637 67.1491H61.0707ZM62.6228 64.8744L63.8519 61.8531L65.109 64.8744H62.6228ZM73.4595 67.1491H74.0776L74.808 65.3559H77.7085L78.4249 67.1491H79.0429L76.5989 61.2809H75.8966L73.4525 67.1491H73.4595ZM75.0117 64.8744L76.2407 61.8531L77.4978 64.8744H75.0117ZM83.608 67.1491H84.1909V64.5255H86.0661C86.5858 64.5255 86.9229 64.6093 87.0844 64.7628C87.239 64.9163 87.3443 65.2512 87.3794 65.7676L87.4497 66.5421C87.4637 66.6816 87.4777 66.8072 87.4988 66.8979C87.5199 66.9956 87.548 67.0794 87.5901 67.1422H88.2433V67.0584C88.1801 67.0096 88.1379 66.9468 88.1098 66.8561C88.0677 66.7654 88.0396 66.6537 88.0326 66.5142L87.9623 65.628C87.9132 65.1954 87.857 64.8954 87.7797 64.7419C87.6674 64.5186 87.4567 64.3581 87.1477 64.2743C87.4777 64.1627 87.7376 63.9883 87.9202 63.7371C88.1028 63.4859 88.1941 63.1858 88.1941 62.823C88.1941 62.5299 88.1239 62.2648 87.9834 62.0345C87.85 61.8043 87.6603 61.6298 87.4075 61.5042C87.1968 61.3996 86.944 61.3298 86.656 61.2949C86.4594 61.274 86.1504 61.267 85.736 61.267H83.5939V67.1352L83.608 67.1491ZM84.1909 64.0441V61.7624H85.8694C86.1855 61.7624 86.4173 61.7694 86.5718 61.7903C86.7895 61.8182 86.9651 61.881 87.1125 61.9717C87.26 62.0624 87.3794 62.188 87.4637 62.3415C87.555 62.4951 87.5971 62.6695 87.5971 62.8579C87.5971 63.2835 87.4567 63.5905 87.1898 63.7789C86.9229 63.9604 86.4945 64.0511 85.9046 64.0511H84.205L84.1909 64.0441ZM92.2605 67.1491H92.8786L93.609 65.3559H96.5095L97.2259 67.1491H97.8439L95.3999 61.2809H94.6975L92.2535 67.1491H92.2605ZM93.8126 64.8744L95.0417 61.8531L96.2988 64.8744H93.8126ZM104.277 67.4073L104.425 67.5678H104.453C104.544 67.5329 104.614 67.5189 104.642 67.512C104.691 67.498 104.741 67.498 104.776 67.498C104.965 67.498 105.106 67.519 105.197 67.5538C105.288 67.5887 105.338 67.6515 105.338 67.7283C105.338 67.805 105.288 67.8609 105.183 67.8957C105.092 67.9237 104.93 67.9446 104.713 67.9446C104.607 67.9446 104.509 67.9306 104.425 67.9167C104.34 67.8957 104.249 67.8609 104.137 67.819L103.989 68.0911C104.109 68.1469 104.235 68.1958 104.375 68.2307C104.523 68.2725 104.684 68.2935 104.846 68.2935C105.211 68.2935 105.506 68.2307 105.731 68.112C105.928 68.0004 106.026 67.8678 106.026 67.7143C106.026 67.5887 105.963 67.4701 105.843 67.3724C105.71 67.2678 105.541 67.2119 105.338 67.2119C105.211 67.2119 105.106 67.2119 105.029 67.2189C104.986 67.2189 104.937 67.2189 104.888 67.2329H104.86L104.937 67.0794H104.993C105.745 67.0794 106.349 66.8979 106.798 66.5351C107.248 66.1862 107.501 65.7048 107.55 65.0838H106.974C106.925 65.5582 106.735 65.9281 106.391 66.2002C106.047 66.4723 105.59 66.6049 105.022 66.6049C104.34 66.6049 103.8 66.3886 103.399 65.956C103.006 65.5233 102.802 64.9512 102.802 64.2395C102.802 63.5277 102.999 62.9207 103.385 62.502C103.778 62.0904 104.319 61.881 105.008 61.881C105.541 61.881 105.977 61.9996 106.321 62.2299C106.658 62.4671 106.855 62.7811 106.918 63.1858H107.501C107.459 62.6486 107.22 62.2229 106.777 61.902C106.321 61.574 105.738 61.4065 105.015 61.4065C104.151 61.4065 103.469 61.6647 102.964 62.1741C102.451 62.6835 102.198 63.3673 102.198 64.2395C102.198 65.007 102.402 65.635 102.809 66.1374C103.217 66.6328 103.778 66.9398 104.495 67.0375L104.291 67.4073H104.277ZM112.55 67.1491H116.441V66.6607H113.14V61.274H112.557V67.1422L112.55 67.1491ZM120.072 67.1491H120.69L121.421 65.3559H124.321L125.038 67.1491H125.656L123.212 61.2809H122.509L120.065 67.1491H120.072ZM121.624 64.8744L122.853 61.8531L124.111 64.8744H121.624ZM130.221 67.1491H130.804V64.5255H132.679C133.198 64.5255 133.536 64.6093 133.697 64.7628C133.852 64.9163 133.957 65.2512 133.992 65.7676L134.062 66.5421C134.076 66.6816 134.09 66.8072 134.111 66.8979C134.133 66.9956 134.161 67.0794 134.203 67.1422H134.856V67.0584C134.793 67.0096 134.751 66.9468 134.723 66.8561C134.68 66.7654 134.652 66.6537 134.645 66.5142L134.575 65.628C134.526 65.1954 134.47 64.8954 134.392 64.7419C134.28 64.5186 134.069 64.3581 133.76 64.2743C134.09 64.1627 134.35 63.9883 134.533 63.7371C134.715 63.4859 134.807 63.1858 134.807 62.823C134.807 62.5299 134.737 62.2648 134.596 62.0345C134.463 61.8043 134.273 61.6298 134.02 61.5042C133.809 61.3996 133.557 61.3298 133.269 61.2949C133.072 61.274 132.763 61.267 132.349 61.267H130.207V67.1352L130.221 67.1491ZM130.804 64.0441V61.7624H132.482C132.798 61.7624 133.03 61.7694 133.184 61.7903C133.402 61.8182 133.578 61.881 133.725 61.9717C133.873 62.0624 133.992 62.188 134.076 62.3415C134.168 62.4951 134.21 62.6695 134.21 62.8579C134.21 63.2835 134.069 63.5905 133.802 63.7789C133.536 63.9604 133.107 64.0511 132.517 64.0511H130.811L130.804 64.0441ZM139.702 67.1491H140.285V61.2809H139.702V67.1491Z" fill="#FF6600"/>
</svg>
