<svg width="64" height="64" viewBox="0 0 64 64" fill="none" xmlns="http://www.w3.org/2000/svg">
<path d="M62.4519 28.4712C62.7252 27.8077 63 27.1443 63.2689 26.4779C63.4194 26.1053 63.548 25.7254 63.6708 25.3571C63.7263 25.192 63.7818 25.0254 63.8403 24.8617L63.8739 24.7682V22.9562L63.8271 22.8466C63.8125 22.813 63.7965 22.7794 63.7804 22.7472C63.776 22.7384 63.7716 22.7297 63.7672 22.7209C63.4019 20.8417 62.3423 19.4184 60.5257 18.3706C58.8188 17.3842 57.0227 16.3058 55.0366 15.0724C54.8948 14.9848 54.737 14.767 54.6931 14.5975C54.4564 13.6973 54.2357 12.7738 54.0223 11.8809C53.8119 11.0012 53.5941 10.0908 53.3603 9.19798C52.5624 6.15116 50.0136 4.33914 46.8657 4.57879L45.5474 4.67962C43.858 4.80676 42.1101 4.93974 40.3915 5.08879C40.0349 5.11948 39.8303 5.05226 39.5804 4.82137C38.6655 3.97527 37.7141 3.14379 36.7949 2.33861C36.5596 2.13257 36.3243 1.92798 36.0905 1.72194C33.5973 -0.465636 30.252 -0.459791 27.7661 1.73801C27.4051 2.05658 27.0442 2.37368 26.6817 2.69079C25.8735 3.39952 25.0376 4.13163 24.2309 4.87252C24.0234 5.06249 23.8451 5.11802 23.5192 5.09025C21.7903 4.94266 20.0322 4.80968 18.3325 4.67962L16.9851 4.57733C13.976 4.34645 11.4564 6.06494 10.565 8.95395C9.96284 10.9062 9.31834 12.9813 8.65485 15.0067C8.60808 15.1484 8.4634 15.3296 8.33333 15.41C7.13495 16.145 5.90296 16.8742 4.71188 17.5786C4.22376 17.8679 3.73418 18.1573 3.24606 18.4481C0.254493 20.225 -0.743671 23.2061 0.573087 26.4209C0.805456 26.9879 1.03929 27.5535 1.27458 28.119C1.76416 29.3012 2.27128 30.5228 2.74479 31.7313C2.80032 31.8716 2.7974 32.1142 2.73894 32.2632C2.2669 33.463 1.76562 34.6759 1.27896 35.8493C1.04075 36.4236 0.802533 36.9993 0.567241 37.5751C-0.740748 40.771 0.244263 43.7389 3.20222 45.5129C5.09332 46.6483 6.9435 47.7546 8.78638 48.8242C9.03775 48.9704 9.14151 49.118 9.21312 49.4336C9.52295 50.8043 9.86492 52.1911 10.1952 53.5311L10.3896 54.3187C11.2752 57.9223 13.805 59.7226 17.5156 59.3909C19.3731 59.2243 21.384 59.0724 23.6638 58.9277C23.7603 58.9219 23.9488 58.9832 24.0599 59.0738C25.1384 59.9682 26.0095 60.728 26.8016 61.466C27.9766 62.562 29.3094 63.62 31.0967 63.9487L31.1493 63.959H32.7248L32.7774 63.9487C34.5706 63.62 35.9005 62.562 37.0696 61.4675C37.8983 60.693 38.8029 59.9039 39.7587 59.1206C39.8931 59.011 40.1211 58.9277 40.26 58.9335C42.2314 59.0548 44.2409 59.2053 46.4024 59.3953C50.0881 59.7197 52.5989 57.9223 53.4728 54.3363C53.5941 53.8409 53.7125 53.344 53.8324 52.8472C54.1071 51.703 54.3906 50.5193 54.6946 49.3649C54.7341 49.2129 54.8787 49.0113 55.003 48.9353C56.6412 47.9211 58.4344 46.8427 60.647 45.5392C62.3482 44.5368 63.3931 43.1164 63.7511 41.319C63.7628 41.3029 63.7731 41.2868 63.7833 41.2707L63.871 41.129V39.2585L63.8301 39.1548C63.6182 38.6185 63.4077 38.0836 63.1958 37.5488C62.5104 35.8171 61.8016 34.0256 61.1279 32.2574C61.0723 32.1127 61.0738 31.8672 61.1308 31.7226C61.5561 30.6368 62.0106 29.5379 62.449 28.4755L62.4519 28.4712ZM56.2803 33.2759C56.9131 34.7606 57.5386 36.2804 58.1421 37.749C58.357 38.2692 58.5703 38.7909 58.7852 39.3111C59.2251 40.3764 59.0789 40.8294 58.1012 41.4154L56.9949 42.0788C55.2602 43.1193 53.4684 44.1948 51.6972 45.2382C50.8905 45.7131 50.4009 46.378 50.2007 47.2709C49.8718 48.7292 49.5094 50.2081 49.1601 51.6387C49.0228 52.2013 48.8854 52.7639 48.7495 53.3265C48.5112 54.3114 48.121 54.6154 47.1331 54.5818C46.4638 54.5292 45.793 54.4809 45.1236 54.4313C43.4488 54.3085 41.7155 54.1799 40.0203 54.0119C38.857 53.8964 37.9348 54.1974 37.1164 54.9573C36.0934 55.9072 35.0178 56.8395 33.9772 57.7426C33.6353 58.0392 33.2933 58.3359 32.9528 58.6325C32.2162 59.2755 31.6696 59.2784 30.9374 58.6398L30.5092 58.2672C29.2129 57.1391 27.8743 55.9729 26.5794 54.8039C25.9641 54.2486 25.2685 53.9768 24.4603 53.9768C24.3493 53.9768 24.2367 53.9826 24.1213 53.9914C22.2813 54.1551 20.4078 54.3012 18.5956 54.443L17.1107 54.5599C15.7121 54.6709 15.4082 54.4517 15.0779 53.1015C14.9712 52.6645 14.8645 52.2276 14.7564 51.7907C14.3895 50.2958 14.011 48.7497 13.6588 47.2256C13.4542 46.34 12.9778 45.6883 12.2032 45.2323C10.7476 44.3775 9.27304 43.4978 7.84667 42.6473C7.16126 42.2381 6.47584 41.8304 5.79043 41.4227C4.79811 40.8338 4.64612 40.3837 5.08017 39.3301C5.27308 38.861 5.46599 38.392 5.6589 37.9229C6.28293 36.4031 6.92889 34.8308 7.58654 33.2964C7.96359 32.4181 7.95921 31.5545 7.57631 30.6587C6.9172 29.1171 6.26832 27.5388 5.64136 26.0118C5.45868 25.5675 5.27746 25.1248 5.09478 24.682C4.64612 23.5933 4.79519 23.1549 5.8182 22.5499C6.46561 22.1656 7.11303 21.7798 7.75899 21.394C8.98221 20.6649 10.2464 19.9108 11.4974 19.1846C12.2968 18.7199 12.7922 18.0988 13.0523 17.2279C13.5273 15.6467 14.033 14.0451 14.5225 12.4962C14.7242 11.859 14.9259 11.2204 15.1246 10.5833C15.4359 9.58961 15.8042 9.33973 16.8331 9.41864C18.4407 9.54285 20.0482 9.6656 21.6573 9.78835C22.6131 9.86142 23.5688 9.93448 24.5246 10.0075C25.2524 10.0631 25.9247 9.82342 26.518 9.29589C28.0277 7.95441 29.5681 6.59686 30.8761 5.44681C31.6828 4.73661 32.2045 4.74246 33.0244 5.46727C33.4935 5.88228 33.9626 6.29729 34.4332 6.71084C35.3846 7.55109 36.3696 8.42057 37.3327 9.27982C37.9509 9.83073 38.6611 10.0645 39.5088 9.9944C41.7667 9.80735 44.0655 9.63638 46.2884 9.46979L47.2544 9.39818C48.0611 9.33827 48.5171 9.70506 48.7319 10.5877L48.8795 11.1912C49.3253 13.0164 49.7856 14.9044 50.2124 16.7646C50.4097 17.621 50.8759 18.2552 51.6373 18.7052C53.7651 19.9605 55.9193 21.2567 58.0033 22.5105L58.0384 22.5324C59.0979 23.1695 59.2338 23.5787 58.7632 24.72C58.544 25.249 58.3277 25.7794 58.11 26.3099C57.5181 27.7522 56.9058 29.2427 56.2846 30.6996C55.9134 31.5706 55.912 32.4138 56.2803 33.2789V33.2759Z" fill="#FF6600"/>
<path d="M31.9341 12.5192H31.9253C26.7285 12.5221 21.8341 14.5577 18.1469 18.2519C14.4597 21.946 12.4327 26.8429 12.44 32.0408C12.4546 42.7667 21.1911 51.5039 31.9151 51.5141H31.9341C37.1237 51.5141 42.0137 49.4858 45.7023 45.8004C49.3954 42.1106 51.4312 37.2182 51.4326 32.0203C51.4326 26.8224 49.4027 21.9285 45.7111 18.2373C42.0224 14.5489 37.1295 12.5177 31.9341 12.5177V12.5192ZM46.8247 32.0218C46.8218 40.2182 40.1518 46.8949 31.956 46.9052H31.9385C27.9721 46.9052 24.2367 45.3547 21.419 42.5402C18.597 39.7214 17.045 35.9804 17.0464 32.0101C17.0508 23.8121 23.7194 17.1354 31.9122 17.1281H31.9253C35.8961 17.1281 39.6344 18.6786 42.4536 21.496C45.2727 24.3134 46.8247 28.0529 46.8233 32.0232L46.8247 32.0218Z" fill="#FF6600"/>
<path d="M38.4551 25.6316C37.8749 26.2044 37.2918 26.7904 36.7277 27.3559L30.3032 33.7915C30.2857 33.774 30.2681 33.7579 30.2521 33.7404C29.726 33.2158 29.2013 32.6897 28.6752 32.1636C27.6069 31.0954 26.502 29.9892 25.4103 28.9078C24.9163 28.4183 24.3069 28.1494 23.6917 28.1494H23.68C23.1115 28.1523 22.5678 28.3891 22.1498 28.8129C21.2525 29.7232 21.3081 31.0925 22.2799 32.0686C24.7585 34.5573 26.7753 36.5724 28.6255 38.4136C29.1326 38.9178 29.7143 39.1706 30.2959 39.1706C30.8776 39.1706 31.4563 38.9193 31.962 38.4151C34.9068 35.4808 38.0576 32.3288 41.5958 28.7822C42.5705 27.8046 42.6202 26.4338 41.7127 25.5235C40.8081 24.6145 39.4372 24.6584 38.4551 25.6287V25.6316Z" fill="#FF6600"/>
</svg>
