<svg width="63" height="66" viewBox="0 0 63 66" fill="none" xmlns="http://www.w3.org/2000/svg">
<path d="M61.9384 38.3996C61.2967 37.0588 60.6331 35.6729 59.929 34.3275C59.6058 33.7114 59.6089 33.2039 59.9368 32.58C60.4567 31.5931 60.9485 30.5766 61.4231 29.5942C61.598 29.2327 61.7744 28.8695 61.9508 28.5079C63.687 24.9619 62.5519 21.4748 59.0593 19.6234C58.6956 19.4294 58.3318 19.2355 57.968 19.0415C56.9734 18.5092 55.9461 17.9598 54.9157 17.4462C54.3411 17.1606 54.0648 16.7711 53.9617 16.1038C53.7275 14.5969 53.459 13.1009 53.1795 11.5708C52.4801 7.73607 49.6432 5.62551 45.7728 6.06935C44.0163 6.26954 42.2942 6.53802 40.9905 6.74907C40.3395 6.8546 39.8945 6.72114 39.4589 6.28817C38.3504 5.18478 37.1997 4.09226 36.0865 3.03699L35.9554 2.91284C33.2153 0.314996 29.5338 0.314996 26.7937 2.91594C25.579 4.06898 24.3706 5.22979 23.2027 6.36886C22.8405 6.72269 22.4658 6.84839 21.9896 6.78011C21.4963 6.70872 21.0044 6.64044 20.5111 6.57061C19.4416 6.42008 18.3362 6.26489 17.2542 6.09573C13.4572 5.50136 10.3955 7.60105 9.63513 11.3178C9.29945 12.9628 9.02935 14.5891 8.78891 16.1038C8.68274 16.7726 8.40483 17.1622 7.83184 17.4462C6.69678 18.011 5.56484 18.6163 4.47038 19.2029C4.19091 19.3534 3.90988 19.5024 3.63041 19.6529C0.254895 21.4546 -0.902021 24.9681 0.752947 28.3962C1.38215 29.6982 2.11595 31.2113 2.87162 32.6871C3.14797 33.2287 3.14953 33.6896 2.87474 34.2266C2.22056 35.5084 1.53828 36.8912 0.731089 38.5765C-0.892653 41.9658 0.247089 45.4451 3.56639 47.2344C4.82635 47.9141 6.32363 48.7133 7.87555 49.4986C8.40639 49.7671 8.67337 50.124 8.76861 50.6935C8.89039 51.4291 9.01998 52.1632 9.14801 52.8972C9.28071 53.6545 9.41811 54.4367 9.54457 55.2064C10.1894 59.1187 13.1277 61.3348 17.0278 60.8537C18.5657 60.6628 20.1723 60.4347 21.8007 60.1724C22.4283 60.0715 22.8546 60.2019 23.2746 60.6224C23.7024 61.0508 24.1458 61.4698 24.5736 61.8748C25.0763 62.3497 25.5962 62.8401 26.0802 63.3382C27.5837 64.8823 28.9858 65.6878 30.6267 65.95L30.6891 65.9593H32.0599L32.1224 65.95C33.7602 65.6878 35.1622 64.8823 36.6689 63.3382C37.2341 62.7578 37.8383 62.1867 38.4238 61.6343C38.7985 61.2804 39.1841 60.9142 39.5619 60.5464C39.9148 60.2019 40.2895 60.0793 40.7782 60.1507C41.3387 60.2314 41.8976 60.3105 42.4581 60.3897C43.462 60.5309 44.4987 60.6768 45.5151 60.8335C49.3653 61.4263 52.3489 59.3685 53.1202 55.5913C53.4106 54.1713 53.6838 52.6241 53.957 50.8642C54.0648 50.1659 54.3489 49.7624 54.9344 49.4722C56.3521 48.7692 57.7603 48.0088 59.1233 47.2732L59.1952 47.2344C62.5098 45.4451 63.6448 41.9658 62.0227 38.5749L61.9399 38.4011L61.9384 38.3996ZM5.49615 40.7507L5.95204 39.818C6.48757 38.7208 7.04026 37.5864 7.59764 36.4799C8.60624 34.4749 8.60624 32.4435 7.59452 30.4385C6.92941 29.1194 6.27055 27.7661 5.63354 26.4579L5.46648 26.1149C5.02464 25.2086 5.18077 24.74 6.08475 24.2589C6.42512 24.0773 6.76391 23.8926 7.10115 23.708C7.93957 23.2502 8.80608 22.7768 9.67572 22.3827C12.2846 21.2017 13.7679 19.147 14.0879 16.2745C14.2019 15.2471 14.4111 14.1965 14.6125 13.18C14.6734 12.8712 14.7359 12.5624 14.7936 12.252C14.956 11.4 15.4072 11.0912 16.305 11.2216C17.8506 11.445 19.6758 11.7058 21.4931 11.9432C23.5041 12.207 25.3058 11.5925 26.8452 10.1166C27.515 9.47417 28.1833 8.83169 28.8531 8.18766C29.348 7.71124 29.8445 7.23326 30.3394 6.75838C31.1435 5.98555 31.604 5.98245 32.3941 6.73976C32.7126 7.04548 33.0311 7.3481 33.3511 7.65226C34.1411 8.40337 34.9577 9.18086 35.7368 9.96146C37.398 11.6235 39.4433 12.2753 41.8133 11.8966C43.1951 11.6763 44.608 11.4807 45.9757 11.2914L46.5409 11.2138C47.3419 11.1021 47.804 11.4342 47.9539 12.2272C48.1428 13.2266 48.3239 14.2462 48.5003 15.2332C48.6284 15.9548 48.7579 16.6764 48.8891 17.398C49.2607 19.4217 50.4082 20.9565 52.3005 21.9606C53.1405 22.4059 53.9836 22.8498 54.8251 23.2936C55.4137 23.6024 56.0008 23.9128 56.5894 24.2232C57.6027 24.7586 57.7432 25.1838 57.2451 26.2034C57.0687 26.565 56.8923 26.9281 56.7158 27.2913C56.2162 28.3186 55.6979 29.3816 55.1733 30.4152C54.146 32.4388 54.146 34.492 55.1733 36.5156C55.8384 37.8254 56.4926 39.1709 57.1249 40.4729L57.3013 40.836C57.7276 41.7128 57.5699 42.1877 56.6971 42.6533C56.3599 42.8333 56.0257 43.0149 55.6901 43.1995C54.8314 43.6682 53.943 44.1539 53.0515 44.5574C50.4785 45.7213 49.0046 47.7589 48.6705 50.6144C48.5378 51.7504 48.3098 52.9096 48.0881 54.0301C48.0366 54.2939 47.9835 54.5593 47.9336 54.8231C47.7899 55.5664 47.2154 55.7309 46.7345 55.7309C46.7267 55.7309 46.7173 55.7309 46.7095 55.7309C46.2552 55.6673 45.793 55.6068 45.3247 55.5463C44.238 55.4035 43.1123 55.2576 42.0085 55.0636C39.512 54.6244 37.3699 55.2964 35.64 57.0578C34.9015 57.8089 34.1177 58.5522 33.3605 59.2692C33.0373 59.5749 32.7141 59.8822 32.3925 60.1895C31.604 60.9468 31.1419 60.9421 30.3378 60.1693C30.0271 59.8713 29.7164 59.5734 29.4042 59.277C28.622 58.5305 27.8132 57.7592 27.0341 56.9879C25.6493 55.6192 24.0349 54.9286 22.2191 54.9286C21.8538 54.9286 21.4806 54.9565 21.1012 55.0124C20.4158 55.1133 19.7304 55.2095 19.045 55.3057C18.1629 55.4299 17.2527 55.5587 16.3549 55.6937C15.3854 55.8396 14.9591 55.5447 14.7796 54.6074C14.4985 53.1284 14.2035 51.5393 13.9505 49.9409C13.5883 47.6503 12.3814 45.9603 10.3596 44.9175C9.22295 44.3308 8.07228 43.721 6.95908 43.1297L6.13159 42.6905C5.15422 42.1722 5.01059 41.7377 5.49302 40.7507H5.49615Z" fill="#FF6600"/>
<path d="M17.6755 43.4011L17.6256 43.4507C17.4679 43.6059 17.2899 43.7828 17.1338 43.9954C16.5155 44.8443 16.439 45.8158 16.9183 46.7314C17.3773 47.6067 18.1892 48.1033 19.204 48.1281C19.2243 48.1281 19.2446 48.1281 19.2649 48.1281C20.3282 48.1281 21.012 47.4484 21.382 47.0806C26.9902 41.5031 32.5999 35.9257 38.2096 30.3498L45.0778 23.5215C45.109 23.492 45.1402 23.4626 45.1714 23.4315C45.3166 23.2965 45.4962 23.1289 45.6289 22.8868C45.7819 22.6059 45.9037 22.3235 46.0223 22.0504C46.0676 21.9464 46.1129 21.8409 46.1597 21.7384L46.244 21.5507L46.2237 21.3474C46.0848 19.9072 44.9294 18.81 43.5383 18.793C43.5274 18.793 43.5165 18.793 43.5055 18.793C42.5563 18.793 41.9177 19.2958 41.3697 19.842C36.0878 25.0967 30.8044 30.3482 25.521 35.5998L17.674 43.4011H17.6755Z" fill="#FF6600"/>
<path d="M23.9814 31.1756C23.9955 31.1756 24.008 31.1756 24.022 31.1756C26.008 31.1756 27.8816 30.4074 29.3039 29.0123C30.7356 27.6063 31.5287 25.7378 31.5381 23.753C31.5568 19.6421 28.2125 16.2621 24.0845 16.2186C24.058 16.2186 24.0314 16.2186 24.0049 16.2186C22.0423 16.2186 20.1828 16.9806 18.7605 18.368C17.3179 19.7755 16.5154 21.6409 16.4997 23.6211C16.4841 25.6401 17.2538 27.5349 18.6668 28.9595C20.0751 30.3779 21.9627 31.1647 23.9814 31.1756ZM24.0205 21.4516H24.0345C25.2851 21.4593 26.2984 22.4727 26.2937 23.7111C26.289 24.9371 25.2477 25.9768 24.0205 25.9799C23.4256 25.9799 22.8323 25.727 22.3936 25.2816C21.9611 24.8424 21.7207 24.2604 21.7332 23.6847C21.7613 22.4308 22.7652 21.4531 24.0205 21.4531V21.4516Z" fill="#FF6600"/>
<path d="M38.7576 35.7523H38.7373C34.6046 35.7523 31.2322 39.0826 31.2166 43.1858C31.201 47.2983 34.5515 50.6721 38.6843 50.7062C38.7046 50.7062 38.7264 50.7062 38.7467 50.7062C40.7249 50.7062 42.5953 49.9349 44.0192 48.5305C45.4618 47.1074 46.2565 45.2219 46.255 43.2215C46.2518 39.1137 42.8888 35.7632 38.7576 35.7523ZM38.7342 45.4717H38.7186C37.468 45.464 36.4547 44.4506 36.4594 43.2122C36.4641 41.9878 37.5055 40.9496 38.7342 40.9465H38.7389C39.3353 40.9465 39.9286 41.201 40.3658 41.6432C40.7967 42.0793 41.0356 42.6613 41.0215 43.2386C40.9918 44.4925 39.9895 45.4702 38.7342 45.4702V45.4717Z" fill="#FF6600"/>
</svg>
