<svg width="18" height="15" viewBox="0 0 18 15" fill="none" xmlns="http://www.w3.org/2000/svg">
<path fill-rule="evenodd" clip-rule="evenodd" d="M16.1737 0.0977965C16.6143 -0.0801648 17.1195 -0.0119942 17.4948 0.275758C17.87 0.56351 18.0572 1.02707 17.9845 1.48776C17.4713 4.75062 16.5299 10.7303 16.0298 13.9049C15.9593 14.3512 15.6553 14.7301 15.2279 14.9023C14.8005 15.0745 14.3115 15.0164 13.9392 14.7487C12.1709 13.4757 9.52145 11.5677 8.17543 10.5989C7.96541 10.4475 7.8347 10.2129 7.81855 9.95815C7.80239 9.7034 7.903 9.45512 8.09319 9.28003C9.32612 8.14194 11.7817 5.8758 13.4714 4.31577C13.6652 4.13565 13.4244 3.83642 13.1997 3.97922C11.0334 5.35985 7.71501 7.47458 6.08921 8.51077C5.47311 8.90329 4.71749 9.02744 4.00446 8.85306C3.10858 8.6342 1.81764 8.31846 0.668421 8.03788C0.299055 7.94747 0.0302922 7.63604 0.00238788 7.26504C-0.0255165 6.89405 0.193313 6.54746 0.545054 6.40609C4.54639 4.79153 12.3765 1.63056 16.1737 0.0977965Z" fill="#FF6600"/>
</svg>
