<svg width="94" height="64" viewBox="0 0 94 64" fill="none" xmlns="http://www.w3.org/2000/svg">
<path d="M61.8396 12.1485H62.9101C67.148 12.1485 71.3883 12.1583 75.6262 12.1461C78.5199 12.1388 80.8124 13.2942 82.5061 15.6269C85.561 19.8389 88.6038 24.0559 91.6662 28.2631C92.7049 29.689 93.223 31.2588 93.2132 33.026C93.1937 37.1625 93.2132 41.2966 93.2059 45.4331C93.1961 49.8547 90.1142 52.9602 85.693 53.0089C84.7545 53.0187 83.8136 53.0089 83.1317 53.0089C82.5989 54.8468 82.3252 56.6481 81.5749 58.2228C79.4095 62.7712 74.1402 64.9723 69.2351 63.5732C64.3814 62.1887 61.2921 57.5573 61.7247 52.3142C62.1109 47.6293 66.141 43.544 70.9606 43.0126C73.8079 42.7006 76.3863 43.427 78.6959 45.1503C79.1162 45.4647 79.7199 45.6646 80.2478 45.6841C82.1003 45.7475 83.9553 45.7085 85.8788 45.7085C85.9008 45.3429 85.9325 45.0504 85.9301 44.7579C85.9179 40.987 85.9154 37.2161 85.8665 33.4453C85.8617 33.0016 85.6833 32.4922 85.4242 32.129C82.5696 28.1485 79.6759 24.1973 76.8189 20.2192C76.4278 19.6732 76.0148 19.4246 75.3182 19.4294C71.1414 19.4611 66.9622 19.4465 62.7854 19.4465H61.842C61.842 19.8633 61.842 20.2143 61.842 20.5629C61.842 26.6153 61.8543 32.6653 61.8347 38.7176C61.8274 41.2576 60.1141 42.8785 57.7532 42.6543C56.1035 42.4958 54.7447 41.1698 54.5687 39.5172C54.5198 39.0662 54.5247 38.6055 54.5247 38.1521C54.5247 28.2704 54.5247 18.3862 54.5247 8.50442V7.30028C54.075 7.30028 53.7206 7.30028 53.3662 7.30028C40.7723 7.32953 28.1784 7.35634 15.5845 7.38803C12.6492 7.39534 10.7698 5.14794 11.591 2.60315C12.092 1.04313 13.4411 0.092491 15.2179 0.092491C23.4199 0.0876159 31.622 0.0876159 39.8265 0.0876159C44.6436 0.0876159 49.4632 0.0827408 54.2803 0.0876159C58.6844 0.0949285 61.7443 3.09309 61.8347 7.50503C61.8665 9.01874 61.8396 10.5324 61.8396 12.1461V12.1485ZM72.1679 56.6871C73.974 56.7042 75.4404 55.2807 75.4527 53.494C75.4649 51.7048 74.018 50.2594 72.2144 50.2594C70.4302 50.2594 69.0249 51.6293 68.9932 53.4038C68.959 55.2173 70.3643 56.6725 72.1679 56.6896V56.6871Z" fill="#FF6600"/>
<path d="M11.4222 53.0109C9.43772 53.0109 7.55584 53.0109 5.67396 53.0109C5.24626 53.0109 4.81856 53.028 4.39575 52.9914C2.37701 52.8159 0.900834 51.1657 0.979042 49.1888C1.05725 47.2486 2.61897 45.7324 4.6206 45.7178C7.79047 45.6959 10.9603 45.7275 14.1278 45.691C14.5408 45.6861 15.0271 45.5204 15.3546 45.2669C18.8422 42.5661 23.4516 42.1785 27.1909 44.3138C30.9131 46.4417 32.9759 50.5953 32.4333 54.8634C31.9005 59.0535 28.8015 62.5295 24.5954 63.6532C18.2508 65.3497 11.7326 60.6087 11.4247 54.0688C11.41 53.7446 11.4247 53.418 11.4247 53.006L11.4222 53.0109ZM21.9925 56.6867C23.7987 56.6745 25.2113 55.2315 25.1844 53.418C25.16 51.6434 23.7571 50.2638 21.9779 50.2589C20.1718 50.254 18.72 51.6898 18.7249 53.4765C18.7274 55.2607 20.1913 56.6964 21.9925 56.6867Z" fill="#FF6600"/>
<path d="M28.4081 37.3358C23.9258 37.3358 19.441 37.3553 14.9588 37.326C12.3021 37.309 10.5498 34.8105 11.4516 32.4046C12.0064 30.9275 13.3604 30.0378 15.1103 30.0378C21.6064 30.0329 28.1026 30.0378 34.5987 30.0378C36.9474 30.0378 39.2961 30.0305 41.6448 30.0378C43.8884 30.0475 45.4941 31.5686 45.5039 33.6697C45.5112 35.7709 43.9104 37.3236 41.6766 37.3309C37.2554 37.3455 32.8317 37.3358 28.4105 37.3333L28.4081 37.3358Z" fill="#FF6600"/>
<path d="M18.1486 22.7521C13.6345 22.7521 9.12044 22.7789 4.60882 22.7423C1.97419 22.7204 0.273163 20.1366 1.24832 17.7454C1.8471 16.2804 3.16197 15.459 4.96564 15.459C12.2536 15.4541 19.5441 15.459 26.8321 15.459C28.3572 15.459 29.8822 15.4468 31.4073 15.4614C33.6558 15.4834 35.2541 17.0093 35.2541 19.1128C35.2541 21.2189 33.6655 22.7472 31.4146 22.7521C26.9934 22.7643 22.5698 22.757 18.1486 22.757V22.7521Z" fill="#FF6600"/>
<path d="M47.0903 45.7135C49.5612 45.7135 52.0296 45.7086 54.5005 45.7135C56.7416 45.7208 58.3718 47.2418 58.3913 49.3234C58.4109 51.3783 56.7587 52.9944 54.5469 53.0041C49.5758 53.0236 44.6047 53.0236 39.6336 53.0041C37.4292 52.9944 35.7697 51.3734 35.7892 49.3234C35.8088 47.2442 37.4438 45.7208 39.6801 45.7135C42.151 45.7061 44.6194 45.7135 47.0903 45.7135Z" fill="#FF6600"/>
</svg>
