<svg width="18" height="19" viewBox="0 0 18 19" fill="none" xmlns="http://www.w3.org/2000/svg">
<path d="M17.5955 14.809L17.4948 14.597C17.1928 13.9014 13.4728 12.8359 13.1644 12.8187L12.9179 12.8371C12.4105 12.939 11.8517 13.4074 10.6789 14.4204C9.35753 13.8244 7.54768 12.2361 6.69466 11.2979C5.77086 10.2834 4.61817 8.57786 4.20405 7.3035C5.54197 6.14795 6.09924 5.64664 6.13464 5.08861C6.15351 4.78813 5.51562 1.06317 4.84351 0.685653L4.64216 0.561859C4.21388 0.293189 3.56733 -0.113072 2.84842 0.0295026C2.67499 0.0651463 2.5051 0.131451 2.34621 0.226884C1.86445 0.523915 0.683836 1.32187 0.145441 2.36589C-0.186877 3.01591 -0.337894 8.94694 4.2241 13.9608C8.07073 18.1905 12.6803 18.9667 14.4678 19H14.7033C14.8905 18.9962 15.0345 18.9831 15.1226 18.9655L15.1465 18.9617L15.2209 18.9394C16.3484 18.5458 17.3037 17.4984 17.6623 17.0664C18.325 16.2669 17.8519 15.3176 17.5955 14.8086V14.809Z" fill="#FF6600"/>
</svg>
